<?xml version="1.0" encoding="UTF-8"?>
<svg width="203px" height="100px" viewBox="0 0 203 100" version="1.1" xmlns="http://www.w3.org/2000/svg" xmlns:xlink="http://www.w3.org/1999/xlink">
    <title>Group 12</title>
    <defs>
        <path d="M3.43053936,100 L3.43053936,97.711425 L4.69304956,97.711425 L6.25814484,100 L8.13625917,100 L6.35205055,97.4457868 C6.83896909,97.2686947 7.22154793,96.9945425 7.49978709,96.6233302 C7.77802625,96.2521179 7.91714583,95.7872511 7.91714583,95.2287298 L7.91714583,95.2287298 L7.91714583,95.2082961 C7.91714583,94.4726827 7.67368657,93.8954305 7.18676804,93.4765396 C6.6998495,93.0576486 6.02511954,92.8482031 5.16257814,92.8482031 L5.16257814,92.8482031 L1.82370821,92.8482031 L1.82370821,100 L3.43053936,100 Z M4.93922325,95.9771142 L3.28045074,95.9771142 L3.28045074,94.189165 L4.90732378,94.189165 C5.31138376,94.189165 5.62683408,94.2647748 5.85367477,94.4159944 C6.08051546,94.567214 6.1939358,94.7881132 6.1939358,95.078692 L6.1939358,95.078692 L6.1939358,95.0964825 C6.1939358,95.3633406 6.08228765,95.5768271 5.85899135,95.736942 C5.63569505,95.8970568 5.32910568,95.9771142 4.93922325,95.9771142 L4.93922325,95.9771142 Z M13.2237628,100 C14.0078279,100 14.7142262,99.8303218 15.3429577,99.4909654 C15.9716891,99.151609 16.4654283,98.6915537 16.824175,98.1107995 C17.1829218,97.5300453 17.3622952,96.8933147 17.3622952,96.2006079 L17.3622952,96.2006079 L17.3622952,96.1796168 C17.3622952,95.4869099 17.184771,94.8519287 16.8297227,94.274673 C16.4746743,93.6974173 15.9846336,93.2408605 15.3596006,92.9050026 C14.7345675,92.5691447 14.0300184,92.4012158 13.2459533,92.4012158 C12.4618882,92.4012158 11.7554899,92.570894 11.1267584,92.9102504 C10.4980269,93.2496068 10.0042878,93.7096621 9.64554103,94.2904163 C9.28679425,94.8711705 9.10742086,95.5079011 9.10742086,96.2006079 L9.10742086,96.2006079 L9.10742086,96.221599 C9.10742086,96.9143059 9.28494504,97.5492871 9.6399934,98.1265428 C9.99504176,98.7037986 10.4850825,99.1603553 11.1101155,99.4962132 C11.7351486,99.8320711 12.4396976,100 13.2237628,100 Z M13.245214,98.6590381 C12.8240704,98.6590381 12.4478028,98.5591432 12.1164112,98.3593534 C11.7850195,98.1595636 11.5243938,97.8886622 11.3345339,97.5466492 C11.1446741,97.2046362 11.0497442,96.8304537 11.0497442,96.4241016 L11.0497442,96.4241016 L11.0497442,96.403784 C11.0497442,95.9974319 11.1429481,95.6249424 11.329356,95.2863157 C11.5157638,94.9476889 11.7729375,94.6801738 12.1008772,94.4837703 C12.4288168,94.2873668 12.8033585,94.189165 13.224502,94.189165 C13.6456456,94.189165 14.0219132,94.2890599 14.3533049,94.4888497 C14.6846966,94.6886395 14.9453223,94.9595409 15.1351821,95.3015539 C15.3250419,95.6435669 15.4199718,96.0177495 15.4199718,96.4241016 L15.4199718,96.4241016 L15.4199718,96.4444192 C15.4199718,96.8507713 15.3267679,97.2232607 15.1403601,97.5618874 C14.9539523,97.9005142 14.6967786,98.1680293 14.3688389,98.3644328 C14.0408992,98.5608363 13.6663576,98.6590381 13.245214,98.6590381 Z M22.3812167,100 C23.1028229,100 23.7135573,99.8897966 24.21342,99.6693899 C24.7132826,99.4489832 25.1811991,99.1218716 25.6171695,98.6880552 L25.6171695,98.6880552 L24.51221,97.6489949 C24.1664404,97.9428706 23.8394626,98.1597788 23.5312766,98.2997196 C23.2230906,98.4396603 22.8585291,98.5096307 22.4375922,98.5096307 C21.994105,98.5096307 21.5994767,98.4064244 21.253707,98.2000118 C20.9079374,97.9935991 20.637335,97.7137176 20.4419,97.3603671 C20.246465,97.0070166 20.1487475,96.6204302 20.1487475,96.2006079 L20.1487475,96.2006079 L20.1487475,96.1796168 C20.1487475,95.7597945 20.246465,95.3767066 20.4419,95.0303532 C20.637335,94.6839997 20.9098166,94.4076167 21.2593446,94.2012041 C21.6088726,93.9947914 22.0016218,93.8915851 22.4375922,93.8915851 C22.8134288,93.8915851 23.1629568,93.9615555 23.4861762,94.1014962 C23.8093957,94.241437 24.1326151,94.4478497 24.4558346,94.7207342 L24.4558346,94.7207342 L25.5607941,93.5347361 C25.1624073,93.163893 24.7189202,92.8822622 24.2303326,92.6898437 C23.7417451,92.4974251 23.1479233,92.4012158 22.4488673,92.4012158 C21.6596105,92.4012158 20.9511586,92.570894 20.3235115,92.9102504 C19.6958644,93.2496068 19.2072769,93.7096621 18.8577489,94.2904163 C18.5082209,94.8711705 18.3334569,95.5079011 18.3334569,96.2006079 L18.3334569,96.2006079 L18.3334569,96.221599 C18.3334569,96.9143059 18.5101001,97.5492871 18.8633864,98.1265428 C19.2166728,98.7037986 19.701502,99.1603553 20.317874,99.4962132 C20.9342459,99.8320711 21.6220268,100 22.3812167,100 Z M28.3492288,100 L28.3492288,97.8135935 L29.2754152,96.9553779 L31.7566799,100 L33.8720439,100 L30.4645928,95.8826084 L33.7233967,92.8482031 L31.5965983,92.8482031 L28.3492288,95.97456 L28.3492288,92.8482031 L26.5883312,92.8482031 L26.5883312,100 L28.3492288,100 Z M36.4853219,100 L36.4853219,97.1290644 L39.5136402,97.1290644 L39.5136402,100 L41.1557565,100 L41.1557565,92.8482031 L39.5136402,92.8482031 L39.5136402,95.6782713 L36.4853219,95.6782713 L36.4853219,92.8482031 L34.8432056,92.8482031 L34.8432056,100 L36.4853219,100 Z M43.8735695,100 L44.5855803,98.4073303 L47.8786299,98.4073303 L48.5906406,100 L50.3817926,100 L47.0442423,92.8482031 L45.4644685,92.8482031 L42.1269182,100 L43.8735695,100 Z M47.4683075,96.8710889 L45.5259841,96.8710889 L46.4971458,94.6361523 L47.4683075,96.8710889 Z M53.0289019,100 L53.0289019,95.3615489 L55.193205,98.3857373 L55.237601,98.3857373 L57.4241022,95.3308983 L57.4241022,100 L59.1222478,100 L59.1222478,92.8482031 L57.2798153,92.8482031 L55.237601,95.8723915 L53.1953867,92.8482031 L51.3529543,92.8482031 L51.3529543,100 L53.0289019,100 Z M62.6843426,100 L62.6843426,97.8544609 L63.9149482,97.8544609 C64.475908,97.8544609 64.9807719,97.7591036 65.4295397,97.5683891 C65.8783076,97.3776745 66.2341665,97.0916026 66.4971164,96.7101734 C66.7600663,96.3287443 66.8915413,95.8723915 66.8915413,95.3411152 L66.8915413,95.3411152 L66.8915413,95.3206815 C66.8915413,94.8370838 66.7775963,94.407976 66.5497064,94.033358 C66.3218164,93.6587401 65.9957585,93.3675598 65.5715327,93.1598171 C65.1473068,92.9520744 64.647702,92.8482031 64.0727182,92.8482031 L64.0727182,92.8482031 L61.0645711,92.8482031 L61.0645711,100 L62.6843426,100 Z M63.9780562,96.4241016 L62.5213137,96.4241016 L62.5213137,94.189165 L63.9422347,94.189165 C64.4118948,94.189165 64.7780705,94.2848983 65.0407618,94.4763648 C65.3034531,94.6678313 65.4347987,94.9411063 65.4347987,95.2961897 L65.4347987,95.2961897 L65.4347987,95.3170769 C65.4347987,95.6373482 65.3034531,95.9019201 65.0407618,96.1107927 C64.7780705,96.3196653 64.4238353,96.4241016 63.9780562,96.4241016 L63.9780562,96.4241016 Z M71.857024,100 L71.857024,94.2989962 L74.1752539,94.2989962 L74.1752539,92.8482031 L67.8627029,92.8482031 L67.8627029,94.2989962 L70.1809329,94.2989962 L70.1809329,100 L71.857024,100 Z M78.7771767,100 C79.5612418,100 80.2676401,99.8303218 80.8963716,99.4909654 C81.525103,99.151609 82.0188421,98.6915537 82.3775889,98.1107995 C82.7363357,97.5300453 82.9157091,96.8933147 82.9157091,96.2006079 L82.9157091,96.2006079 L82.9157091,96.1796168 C82.9157091,95.4869099 82.7381849,94.8519287 82.3831366,94.274673 C82.0280882,93.6974173 81.5380475,93.2408605 80.9130144,92.9050026 C80.2879814,92.5691447 79.5834323,92.4012158 78.7993672,92.4012158 C78.0153021,92.4012158 77.3089038,92.570894 76.6801723,92.9102504 C76.0514408,93.2496068 75.5577017,93.7096621 75.1989549,94.2904163 C74.8402081,94.8711705 74.6608348,95.5079011 74.6608348,96.2006079 L74.6608348,96.2006079 L74.6608348,96.221599 C74.6608348,96.9143059 74.8383589,97.5492871 75.1934073,98.1265428 C75.5484557,98.7037986 76.0384964,99.1603553 76.6635294,99.4962132 C77.2885625,99.8320711 77.9931115,100 78.7771767,100 Z M78.7986279,98.6590381 C78.3774843,98.6590381 78.0012167,98.5591432 77.6698251,98.3593534 C77.3384334,98.1595636 77.0778077,97.8886622 76.8879478,97.5466492 C76.698088,97.2046362 76.6031581,96.8304537 76.6031581,96.4241016 L76.6031581,96.4241016 L76.6031581,96.403784 C76.6031581,95.9974319 76.696362,95.6249424 76.8827698,95.2863157 C77.0691777,94.9476889 77.3263514,94.6801738 77.6542911,94.4837703 C77.9822307,94.2873668 78.3567724,94.189165 78.7779159,94.189165 C79.1990595,94.189165 79.5753271,94.2890599 79.9067188,94.4888497 C80.2381105,94.6886395 80.4987362,94.9595409 80.688596,95.3015539 C80.8784558,95.6435669 80.9733857,96.0177495 80.9733857,96.4241016 L80.9733857,96.4241016 L80.9733857,96.4444192 C80.9733857,96.8507713 80.8801818,97.2232607 80.693774,97.5618874 C80.5073662,97.9005142 80.2501925,98.1680293 79.9222528,98.3644328 C79.5943131,98.5608363 79.2197715,98.6590381 78.7986279,98.6590381 Z M86.0337314,100 L86.0337314,95.4535005 L89.7388226,100 L91.1705834,100 L91.1705834,92.8482031 L89.5093036,92.8482031 L89.5093036,97.2516666 L85.9244367,92.8482031 L84.3724516,92.8482031 L84.3724516,100 L86.0337314,100 Z M97.619545,100 C98.4780492,100 99.155521,99.7851103 99.6519604,99.355331 C100.1484,98.9255516 100.396619,98.2943132 100.396619,97.4616158 L100.396619,97.4616158 L100.396619,92.8482031 L98.6273543,92.8482031 L98.6273543,97.3911051 C98.6273543,97.7873079 98.5359049,98.0811024 98.3530062,98.2724885 C98.1701074,98.4638746 97.9106899,98.5595677 97.5747534,98.5595677 C97.3134695,98.5595677 97.0689825,98.5008088 96.8412922,98.383291 C96.613602,98.2657732 96.3803128,98.0894965 96.1414247,97.8544609 L96.1414247,97.8544609 L95.0552302,98.9423399 C95.7121725,99.6474466 96.5669441,100 97.619545,100 Z M105.969704,100 C106.753769,100 107.460167,99.8303218 108.088899,99.4909654 C108.71763,99.151609 109.211369,98.6915537 109.570116,98.1107995 C109.928863,97.5300453 110.108236,96.8933147 110.108236,96.2006079 L110.108236,96.2006079 L110.108236,96.1796168 C110.108236,95.4869099 109.930712,94.8519287 109.575664,94.274673 C109.220615,93.6974173 108.730575,93.2408605 108.105542,92.9050026 C107.480509,92.5691447 106.77596,92.4012158 105.991894,92.4012158 C105.207829,92.4012158 104.501431,92.570894 103.8727,92.9102504 C103.243968,93.2496068 102.750229,93.7096621 102.391482,94.2904163 C102.032735,94.8711705 101.853362,95.5079011 101.853362,96.2006079 L101.853362,96.2006079 L101.853362,96.221599 C101.853362,96.9143059 102.030886,97.5492871 102.385935,98.1265428 C102.740983,98.7037986 103.231024,99.1603553 103.856057,99.4962132 C104.48109,99.8320711 105.185639,100 105.969704,100 Z M105.749515,98.6590381 C105.281578,98.6590381 104.863503,98.5591432 104.49529,98.3593534 C104.127077,98.1595636 103.837493,97.8886622 103.626538,97.5466492 C103.415582,97.2046362 103.310105,96.8304537 103.310105,96.4241016 L103.310105,96.4241016 L103.310105,96.403784 C103.310105,95.9974319 103.413664,95.6249424 103.620784,95.2863157 C103.827904,94.9476889 104.113653,94.6801738 104.47803,94.4837703 C104.842407,94.2873668 105.258565,94.189165 105.726502,94.189165 C106.194439,94.189165 106.612515,94.2890599 106.980727,94.4888497 C107.34894,94.6886395 107.638525,94.9595409 107.84948,95.3015539 C108.060435,95.6435669 108.165913,96.0177495 108.165913,96.4241016 L108.165913,96.4241016 L108.165913,96.4444192 C108.165913,96.8507713 108.062353,97.2232607 107.855233,97.5618874 C107.648113,97.9005142 107.362365,98.1680293 106.997987,98.3644328 C106.63361,98.5608363 106.217453,98.6590381 105.749515,98.6590381 Z M115.127158,100 C115.848764,100 116.459498,99.8897966 116.959361,99.6693899 C117.459224,99.4489832 117.92714,99.1218716 118.363111,98.6880552 L118.363111,98.6880552 L117.258151,97.6489949 C116.912382,97.9428706 116.585404,98.1597788 116.277218,98.2997196 C115.969032,98.4396603 115.60447,98.5096307 115.183533,98.5096307 C114.740046,98.5096307 114.345418,98.4064244 113.999648,98.2000118 C113.653879,97.9935991 113.383276,97.7137176 113.187841,97.3603671 C112.992406,97.0070166 112.894689,96.6204302 112.894689,96.2006079 L112.894689,96.2006079 L112.894689,96.1796168 C112.894689,95.7597945 112.992406,95.3767066 113.187841,95.0303532 C113.383276,94.6839997 113.655758,94.4076167 114.005286,94.2012041 C114.354814,93.9947914 114.747563,93.8915851 115.183533,93.8915851 C115.55937,93.8915851 115.908898,93.9615555 116.232117,94.1014962 C116.555337,94.241437 116.878556,94.4478497 117.201776,94.7207342 L117.201776,94.7207342 L118.306735,93.5347361 C117.908348,93.163893 117.464861,92.8822622 116.976274,92.6898437 C116.487686,92.4974251 115.893864,92.4012158 115.194808,92.4012158 C114.405552,92.4012158 113.6971,92.570894 113.069453,92.9102504 C112.441806,93.2496068 111.953218,93.7096621 111.60369,94.2904163 C111.254162,94.8711705 111.079398,95.5079011 111.079398,96.2006079 L111.079398,96.2006079 L111.079398,96.221599 C111.079398,96.9143059 111.256041,97.5492871 111.609328,98.1265428 C111.962614,98.7037986 112.447443,99.1603553 113.063815,99.4962132 C113.680187,99.8320711 114.367968,100 115.127158,100 Z M121.09517,100 L121.09517,97.8135935 L122.021356,96.9553779 L124.502621,100 L126.617985,100 L123.210534,95.8826084 L126.469338,92.8482031 L124.342539,92.8482031 L121.09517,95.97456 L121.09517,92.8482031 L119.334272,92.8482031 L119.334272,100 L121.09517,100 Z M133.416117,100 L133.416117,98.6002912 L128.915611,98.6002912 L128.915611,97.0984138 L132.823945,97.0984138 L132.823945,95.698705 L128.915611,95.698705 L128.915611,94.2479119 L133.3569,94.2479119 L133.3569,92.8482031 L127.103566,92.8482031 L127.103566,100 L133.416117,100 Z M138.354025,100 L138.354025,97.1494981 L141.18541,92.8482031 L139.343431,92.8482031 L137.55408,95.7191387 L135.796305,92.8482031 L133.901698,92.8482031 L136.733083,97.1801487 L136.733083,100 L138.354025,100 Z M149.117817,100 C149.839423,100 150.450158,99.8897966 150.95002,99.6693899 C151.449883,99.4489832 151.917799,99.1218716 152.35377,98.6880552 L152.35377,98.6880552 L151.24881,97.6489949 C150.903041,97.9428706 150.576063,98.1597788 150.267877,98.2997196 C149.959691,98.4396603 149.595129,98.5096307 149.174192,98.5096307 C148.730705,98.5096307 148.336077,98.4064244 147.990307,98.2000118 C147.644538,97.9935991 147.373935,97.7137176 147.1785,97.3603671 C146.983065,97.0070166 146.885348,96.6204302 146.885348,96.2006079 L146.885348,96.2006079 L146.885348,96.1796168 C146.885348,95.7597945 146.983065,95.3767066 147.1785,95.0303532 C147.373935,94.6839997 147.646417,94.4076167 147.995945,94.2012041 C148.345473,93.9947914 148.738222,93.8915851 149.174192,93.8915851 C149.550029,93.8915851 149.899557,93.9615555 150.222776,94.1014962 C150.545996,94.241437 150.869215,94.4478497 151.192435,94.7207342 L151.192435,94.7207342 L152.297394,93.5347361 C151.899007,93.163893 151.45552,92.8822622 150.966933,92.6898437 C150.478345,92.4974251 149.884523,92.4012158 149.185467,92.4012158 C148.396211,92.4012158 147.687759,92.570894 147.060112,92.9102504 C146.432465,93.2496068 145.943877,93.7096621 145.594349,94.2904163 C145.244821,94.8711705 145.070057,95.5079011 145.070057,96.2006079 L145.070057,96.2006079 L145.070057,96.221599 C145.070057,96.9143059 145.2467,97.5492871 145.599987,98.1265428 C145.953273,98.7037986 146.438102,99.1603553 147.054474,99.4962132 C147.670846,99.8320711 148.358627,100 149.117817,100 Z M159.151902,100 L159.151902,98.5696406 L155.445848,98.5696406 L155.445848,92.8482031 L153.810512,92.8482031 L153.810512,100 L159.151902,100 Z M163.258642,100 C164.252092,100 165.029951,99.7317657 165.592216,99.1952971 C166.154481,98.6588285 166.435614,97.8675374 166.435614,96.8214236 L166.435614,96.8214236 L166.435614,92.8482031 L164.841954,92.8482031 L164.841954,96.8817763 C164.841954,97.4316566 164.705699,97.8507727 164.43319,98.1391246 C164.160681,98.4274764 163.776064,98.5716524 163.279339,98.5716524 C162.782613,98.5716524 162.397996,98.4224471 162.125487,98.1240364 C161.852978,97.8256257 161.716724,97.3947744 161.716724,96.8314824 L161.716724,96.8314824 L161.716724,92.8482031 L160.123063,92.8482031 L160.123063,96.8717175 C160.123063,97.8910079 160.399022,98.6672108 160.950939,99.2003265 C161.502856,99.7334422 162.27209,100 163.258642,100 Z M171.910844,100 C172.773736,100 173.452733,99.8331247 173.947835,99.4993742 C174.442938,99.1656237 174.690489,98.6786204 174.690489,98.0383643 L174.690489,98.0383643 L174.690489,98.0179306 C174.690489,97.5615778 174.573786,97.1971767 174.340381,96.9247273 C174.106975,96.6522779 173.760404,96.4309128 173.300666,96.2606319 C173.951372,95.9064477 174.276725,95.3921994 174.276725,94.7178872 L174.276725,94.7178872 L174.276725,94.6974534 C174.276725,94.1321209 174.057465,93.6825794 173.618946,93.3488289 C173.180427,93.0150784 172.582768,92.8482031 171.82597,92.8482031 L171.82597,92.8482031 L168.377938,92.8482031 L168.377938,100 L171.910844,100 Z M171.469917,95.5301269 L169.83468,95.5301269 L169.83468,94.189165 L171.585074,94.189165 C171.961256,94.189165 172.249149,94.2450384 172.448756,94.3567853 C172.648362,94.4685321 172.748165,94.630112 172.748165,94.8415249 L172.748165,94.8415249 L172.748165,94.859646 C172.748165,95.08918 172.636846,95.2583103 172.414208,95.367037 C172.191571,95.4757636 171.876807,95.5301269 171.469917,95.5301269 L171.469917,95.5301269 Z M171.964917,98.2120508 L169.83468,98.2120508 L169.83468,96.8710889 L171.906713,96.8710889 C172.356818,96.8710889 172.690516,96.9291392 172.907808,97.0452398 C173.1251,97.1613404 173.233746,97.3238812 173.233746,97.5328623 L173.233746,97.5328623 L173.233746,97.5502774 C173.233746,97.7708685 173.12316,97.9363119 172.901988,98.0466074 C172.680816,98.156903 172.368459,98.2120508 171.964917,98.2120508 L171.964917,98.2120508 Z M181.00304,100 L181.00304,92.8482031 L179.546297,92.8482031 L179.546297,100 L181.00304,100 Z M184.606643,100 L184.606643,95.4535005 L188.311734,100 L189.743495,100 L189.743495,92.8482031 L188.082215,92.8482031 L188.082215,97.2516666 L184.497348,92.8482031 L182.945363,92.8482031 L182.945363,100 L184.606643,100 Z M195.247997,100 C195.969603,100 196.580338,99.8897966 197.0802,99.6693899 C197.580063,99.4489832 198.047979,99.1218716 198.48395,98.6880552 L198.48395,98.6880552 L197.37899,97.6489949 C197.033221,97.9428706 196.706243,98.1597788 196.398057,98.2997196 C196.089871,98.4396603 195.725309,98.5096307 195.304373,98.5096307 C194.860885,98.5096307 194.466257,98.4064244 194.120487,98.2000118 C193.774718,97.9935991 193.504115,97.7137176 193.30868,97.3603671 C193.113245,97.0070166 193.015528,96.6204302 193.015528,96.2006079 L193.015528,96.2006079 L193.015528,96.1796168 C193.015528,95.7597945 193.113245,95.3767066 193.30868,95.0303532 C193.504115,94.6839997 193.776597,94.4076167 194.126125,94.2012041 C194.475653,93.9947914 194.868402,93.8915851 195.304373,93.8915851 C195.680209,93.8915851 196.029737,93.9615555 196.352957,94.1014962 C196.676176,94.241437 196.999395,94.4478497 197.322615,94.7207342 L197.322615,94.7207342 L198.427574,93.5347361 C198.029188,93.163893 197.5857,92.8822622 197.097113,92.6898437 C196.608525,92.4974251 196.014704,92.4012158 195.315648,92.4012158 C194.526391,92.4012158 193.817939,92.570894 193.190292,92.9102504 C192.562645,93.2496068 192.074057,93.7096621 191.724529,94.2904163 C191.375001,94.8711705 191.200237,95.5079011 191.200237,96.2006079 L191.200237,96.2006079 L191.200237,96.221599 C191.200237,96.9143059 191.37688,97.5492871 191.730167,98.1265428 C192.083453,98.7037986 192.568282,99.1603553 193.184654,99.4962132 C193.801026,99.8320711 194.488807,100 195.247997,100 Z M200.911854,100 L200.911854,98.2120508 L199.455112,98.2120508 L199.455112,100 L200.911854,100 Z" id="path-1"></path>
    </defs>
    <g id="Page-1" stroke="none" stroke-width="1" fill="none" fill-rule="evenodd">
        <g id="Group-12" fill-rule="nonzero">
            <g id="ROCKHAMPTONJOCKEYCLUBINC.">
                <use fill="#000000" xlink:href="#path-1"></use>
                <use fill="#FFFFFF" xlink:href="#path-1"></use>
            </g>
            <g id="callaghanpark" transform="translate(1.215805, 60.790274)">
                <path d="M8.11723924,21.1963067 C9.57194161,21.1963067 10.7841936,20.9588929 11.7539952,20.4840652 C12.7237968,20.0092376 13.6354102,19.3159892 14.4888356,18.4043201 L14.4888356,18.4043201 L11.8994654,15.8402507 C11.3175845,16.3910508 10.7502505,16.7994026 10.1974636,17.0653061 C9.64467673,17.3312096 9.01915471,17.4641613 8.32089757,17.4641613 C7.13773964,17.4641613 6.18248508,17.0605578 5.4551339,16.2533508 C4.72778271,15.4461438 4.36410712,14.4442574 4.36410712,13.2476917 L4.36410712,13.2476917 L4.36410712,13.1907124 C4.36410712,12.4499812 4.52897339,11.7614811 4.85870592,11.1252121 C5.18843846,10.488943 5.6393962,9.9808774 6.21157913,9.60101527 C6.78376206,9.22115314 7.42868012,9.03122208 8.14633329,9.03122208 C8.88338249,9.03122208 9.52345153,9.1689221 10.0665404,9.44432214 C10.6096293,9.71972218 11.1527182,10.1423188 11.6958071,10.712112 L11.6958071,10.712112 L14.4015535,7.86314604 C13.6257122,7.02744936 12.7480418,6.39118029 11.7685422,5.95433885 C10.7890426,5.5174974 9.59133764,5.29907668 8.17542733,5.29907668 C6.6237448,5.29907668 5.22238152,5.65519742 3.97133748,6.36743891 C2.72029344,7.0796804 1.74564285,8.04358055 1.04738571,9.25913935 C0.349128569,10.4746982 0,11.8042156 0,13.2476917 L0,13.2476917 L0,13.304671 C0,14.7481471 0.353977577,16.0729163 1.06193273,17.2789785 C1.76988789,18.4850408 2.73968947,19.4394444 3.97133748,20.1421893 C5.20298549,20.8449342 6.58495274,21.1963067 8.11723924,21.1963067 Z M21.3453171,21.1963067 C23.3241844,21.1963067 24.9111968,20.5435219 26.1063543,19.2379523 L26.1063543,19.2379523 L26.1063543,20.9083134 L30.4265548,20.9083134 L30.4265548,11.9517219 C30.4265548,9.8013719 29.853467,8.15501021 28.7072914,7.0126368 C27.5611157,5.87026338 25.7928704,5.29907668 23.4025554,5.29907668 C22.1486197,5.29907668 21.0563241,5.39987433 20.1256686,5.60146964 C19.1950132,5.80306495 18.2496632,6.11505769 17.2896187,6.53744786 L17.2896187,6.53744786 L18.4064052,9.87817011 C19.190115,9.59017681 19.9101484,9.37898173 20.5665054,9.24458485 C21.2228624,9.11018798 21.9526922,9.04298954 22.7559948,9.04298954 C23.8727813,9.04298954 24.7152694,9.28298396 25.283459,9.76297279 C25.8516486,10.2429616 26.1357435,10.9437453 26.1357435,11.8653239 L26.1357435,11.8653239 L26.1357435,12.1245178 C24.8818077,11.7021277 23.5984829,11.4909326 22.2857689,11.4909326 C20.346087,11.4909326 18.8031583,11.903723 17.6569827,12.7293038 C16.510807,13.5548845 15.9377192,14.7836559 15.9377192,16.415618 L15.9377192,16.415618 L15.9377192,16.4732166 C15.9377192,17.9515822 16.4520288,19.1083553 17.4806479,19.9435359 C18.5092671,20.7787164 19.7974901,21.1963067 21.3453171,21.1963067 Z M22.6657033,18.3059012 C21.9579978,18.3059012 21.3841825,18.1265321 20.9442574,17.7677938 C20.5043324,17.4090556 20.2843699,16.9221965 20.2843699,16.3072166 L20.2843699,16.3072166 L20.2843699,16.2457186 C20.2843699,15.5077428 20.5521503,14.9440112 21.0877113,14.5545239 C21.6232722,14.1650367 22.3596685,13.9702931 23.2969001,13.9702931 C24.3297676,13.9702931 25.2574356,14.1752864 26.0799041,14.5852729 L26.0799041,14.5852729 L26.0799041,15.4154958 C26.0799041,16.2559683 25.7643057,16.9478207 25.1331089,17.4910529 C24.5019121,18.0342851 23.6794436,18.3059012 22.6657033,18.3059012 Z M38.1539338,21.1963067 L38.1539338,0 L33.8072831,0 L33.8072831,21.1963067 L38.1539338,21.1963067 Z M46.8472352,21.1963067 L46.8472352,0 L42.5005845,0 L42.5005845,21.1963067 L46.8472352,21.1963067 Z M54.972347,21.1963067 C56.8852521,21.1963067 58.4193641,20.5435219 59.574683,19.2379523 L59.574683,19.2379523 L59.574683,20.9083134 L63.7508768,20.9083134 L63.7508768,11.9517219 C63.7508768,9.8013719 63.1968919,8.15501021 62.0889221,7.0126368 C60.9809523,5.87026338 59.2716485,5.29907668 56.9610107,5.29907668 C55.7488728,5.29907668 54.6929871,5.39987433 53.7933535,5.60146964 C52.8937199,5.80306495 51.9798816,6.11505769 51.0518385,6.53744786 L51.0518385,6.53744786 L52.1313988,9.87817011 C52.888985,9.59017681 53.5850173,9.37898173 54.2194957,9.24458485 C54.8539741,9.11018798 55.5594762,9.04298954 56.3360021,9.04298954 C57.4155624,9.04298954 58.2299675,9.28298396 58.7792175,9.76297279 C59.3284675,10.2429616 59.6030925,10.9437453 59.6030925,11.8653239 L59.6030925,11.8653239 L59.6030925,12.1245178 C58.3909546,11.7021277 57.1504072,11.4909326 55.8814504,11.4909326 C54.0064246,11.4909326 52.5149268,11.903723 51.406957,12.7293038 C50.2989872,13.5548845 49.7450023,14.7836559 49.7450023,16.415618 L49.7450023,16.415618 L49.7450023,16.4732166 C49.7450023,17.9515822 50.2421683,19.1083553 51.2365001,19.9435359 C52.230832,20.7787164 53.4761143,21.1963067 54.972347,21.1963067 Z M56.4729864,18.3059012 C55.7652809,18.3059012 55.1914656,18.1265321 54.7515406,17.7677938 C54.3116155,17.4090556 54.091653,16.9221965 54.091653,16.3072166 L54.091653,16.3072166 L54.091653,16.2457186 C54.091653,15.5077428 54.3594335,14.9440112 54.8949944,14.5545239 C55.4305553,14.1650367 56.1669516,13.9702931 57.1041832,13.9702931 C58.1370507,13.9702931 59.0647187,14.1752864 59.8871873,14.5852729 L59.8871873,14.5852729 L59.8871873,15.4154958 C59.8871873,16.2559683 59.5715889,16.9478207 58.9403921,17.4910529 C58.3091953,18.0342851 57.4867267,18.3059012 56.4729864,18.3059012 Z M74.3485722,25.5319149 C77.3041002,25.5319149 79.4964409,24.8936851 80.9255943,23.6172254 C82.3547476,22.3407657 83.0693243,20.283189 83.0693243,17.4444951 L83.0693243,17.4444951 L83.0693243,5.58485123 L78.6360323,5.58485123 L78.6360323,7.58527308 C77.955483,6.86131089 77.2263232,6.2992876 76.4485526,5.89920323 C75.6707821,5.49911886 74.7180132,5.29907668 73.5902459,5.29907668 C72.3652573,5.29907668 71.2229069,5.58485123 70.1631945,6.15640033 C69.1034822,6.72794943 68.2527956,7.55193272 67.6111349,8.6283502 C66.9694743,9.70476767 66.6486439,10.9764644 66.6486439,12.4434405 L66.6486439,12.4434405 L66.6486439,12.5005954 C66.6486439,13.9675714 66.9646132,15.2392681 67.5965517,16.3156856 C68.2284903,17.3921031 69.0743158,18.2160864 70.1340281,18.7876355 C71.1937405,19.3591846 72.3458131,19.6449591 73.5902459,19.6449591 C74.7180132,19.6449591 75.6756432,19.440154 76.4631358,19.0305439 C77.2506285,18.6209337 77.9943716,17.9969926 78.694365,17.1587205 L78.694365,17.1587205 L78.694365,17.9017344 C78.694365,20.6832733 77.2068789,22.0740428 74.2319066,22.0740428 C73.2402492,22.0740428 72.3215077,21.9549701 71.4756823,21.7168246 C70.6298568,21.4786792 69.7888924,21.1309868 68.9527891,20.6737475 L68.9527891,20.6737475 L67.4361366,23.9315774 C69.4972285,24.9984691 71.8013737,25.5319149 74.3485722,25.5319149 Z M74.8441807,15.89723 C73.7388596,15.89723 72.8210483,15.5648334 72.0907468,14.9000401 C71.3604453,14.2352469 70.9952946,13.3729426 70.9952946,12.3131273 L70.9952946,12.3131273 L70.9952946,12.2553191 C70.9952946,11.2147732 71.3604453,10.3572862 72.0907468,9.68285829 C72.8210483,9.00843035 73.7388596,8.67121638 74.8441807,8.67121638 C75.9495018,8.67121638 76.8722476,9.00843035 77.612418,9.68285829 C78.3525884,10.3572862 78.7226736,11.2147732 78.7226736,12.2553191 L78.7226736,12.2553191 L78.7226736,12.3131273 C78.7226736,13.3536732 78.3525884,14.2111602 77.612418,14.8855881 C76.8722476,15.5600161 75.9495018,15.89723 74.8441807,15.89723 Z M90.9353948,21.1963067 L90.9353948,12.5145318 C90.9353948,11.4885918 91.1862199,10.7046188 91.68787,10.1626128 C92.1895201,9.62060679 92.8731413,9.34960378 93.7387337,9.34960378 C94.604326,9.34960378 95.2731928,9.62060679 95.7453341,10.1626128 C96.2174754,10.7046188 96.453546,11.4885918 96.453546,12.5145318 L96.453546,12.5145318 L96.453546,21.1963067 L100.938888,21.1963067 L100.938888,11.120802 C100.938888,9.32056774 100.466747,7.90748063 99.5224644,6.88154067 C98.5781818,5.85560071 97.2601207,5.34263073 95.5682811,5.34263073 C94.5256358,5.34263073 93.645289,5.56524034 92.9272408,6.01045957 C92.2091926,6.4556788 91.545244,7.06543557 90.9353948,7.83972988 L90.9353948,7.83972988 L90.9353948,0 L86.4500526,0 L86.4500526,21.1963067 L90.9353948,21.1963067 Z M108.761292,21.1963067 C110.740159,21.1963067 112.327172,20.5435219 113.522329,19.2379523 L113.522329,19.2379523 L113.522329,20.9083134 L117.84253,20.9083134 L117.84253,11.9517219 C117.84253,9.8013719 117.269442,8.15501021 116.123266,7.0126368 C114.977091,5.87026338 113.208845,5.29907668 110.81853,5.29907668 C109.564595,5.29907668 108.472299,5.39987433 107.541644,5.60146964 C106.610988,5.80306495 105.665638,6.11505769 104.705594,6.53744786 L104.705594,6.53744786 L105.82238,9.87817011 C106.60609,9.59017681 107.326123,9.37898173 107.98248,9.24458485 C108.638837,9.11018798 109.368667,9.04298954 110.17197,9.04298954 C111.288756,9.04298954 112.131244,9.28298396 112.699434,9.76297279 C113.267624,10.2429616 113.551718,10.9437453 113.551718,11.8653239 L113.551718,11.8653239 L113.551718,12.1245178 C112.297783,11.7021277 111.014458,11.4909326 109.701744,11.4909326 C107.762062,11.4909326 106.219133,11.903723 105.072958,12.7293038 C103.926782,13.5548845 103.353694,14.7836559 103.353694,16.415618 L103.353694,16.415618 L103.353694,16.4732166 C103.353694,17.9515822 103.868004,19.1083553 104.896623,19.9435359 C105.925242,20.7787164 107.213465,21.1963067 108.761292,21.1963067 Z M110.081678,18.3059012 C109.373973,18.3059012 108.800157,18.1265321 108.360232,17.7677938 C107.920307,17.4090556 107.700345,16.9221965 107.700345,16.3072166 L107.700345,16.3072166 L107.700345,16.2457186 C107.700345,15.5077428 107.968125,14.9440112 108.503686,14.5545239 C109.039247,14.1650367 109.775643,13.9702931 110.712875,13.9702931 C111.745743,13.9702931 112.673411,14.1752864 113.495879,14.5852729 L113.495879,14.5852729 L113.495879,15.4154958 C113.495879,16.2559683 113.180281,16.9478207 112.549084,17.4910529 C111.917887,18.0342851 111.095419,18.3059012 110.081678,18.3059012 Z M125.7086,21.1963067 L125.7086,12.4906807 C125.7086,11.4619223 125.959425,10.6757955 126.461075,10.1323005 C126.962726,9.58880541 127.646347,9.31705789 128.511939,9.31705789 C129.377532,9.31705789 130.046398,9.58880541 130.51854,10.1323005 C130.990681,10.6757955 131.226752,11.4619223 131.226752,12.4906807 L131.226752,12.4906807 L131.226752,21.1963067 L135.712094,21.1963067 L135.712094,11.0931221 C135.712094,9.28794209 135.239952,7.87097286 134.29567,6.84221439 C133.351387,5.81345591 132.033326,5.29907668 130.341487,5.29907668 C129.298841,5.29907668 128.418495,5.52229785 127.700446,5.96874021 C126.982398,6.41518257 126.318449,7.02661449 125.7086,7.80303598 L125.7086,7.80303598 L125.7086,5.59023474 L121.223258,5.59023474 L121.223258,21.1963067 L125.7086,21.1963067 Z" id="callaghan" fill="#FFFFFF"></path>
                <path d="M141.855508,25.5319149 L141.855508,18.0965429 C143.355587,20.2017962 145.309637,21.2544229 147.717658,21.2544229 C148.980882,21.2544229 150.170089,20.9386349 151.285279,20.3070589 C152.400469,19.6754829 153.303477,18.7759656 153.994303,17.6085069 C154.685128,16.4410482 155.030541,15.0726336 155.030541,13.5032629 C155.030541,11.9338922 154.685128,10.5654776 153.994303,9.39801891 C153.303477,8.23056025 152.395535,7.33582758 151.270476,6.71382092 C150.145417,6.09181425 148.961144,5.78081092 147.717658,5.78081092 C145.349112,5.78081092 143.395063,6.88128425 141.855508,9.08223092 L141.855508,9.08223092 L141.855508,6.09659892 L139.575783,6.09659892 L139.575783,25.5319149 L141.855508,25.5319149 Z M147.375148,19.2693697 C146.453726,19.2693697 145.580295,19.0242979 144.754855,18.5341544 C143.929414,18.0440108 143.262343,17.3568487 142.753642,16.4726682 C142.24494,15.5884876 141.990589,14.5889792 141.990589,13.4741428 C141.990589,12.3593065 142.24494,11.3646033 142.753642,10.4900334 C143.262343,9.61546355 143.929414,8.93310682 144.754855,8.44296325 C145.580295,7.95281968 146.453726,7.70774789 147.375148,7.70774789 C148.315767,7.70774789 149.189198,7.94801435 149.995442,8.42854726 C150.801686,8.90908017 151.439963,9.58663157 151.910272,10.4612015 C152.380581,11.3357714 152.615735,12.3496958 152.615735,13.5029748 C152.615735,14.6754751 152.380581,15.6990102 151.910272,16.5735801 C151.439963,17.44815 150.806485,18.1160907 150.009839,18.5774023 C149.213193,19.0387139 148.334963,19.2693697 147.375148,19.2693697 Z M163.471724,21.1963067 C164.678063,21.1963067 165.731217,20.9609923 166.631184,20.4903634 C167.531151,20.0197346 168.268358,19.4002334 168.842806,18.6318597 L168.842806,18.6318597 L168.842806,20.8793526 L170.96826,20.8793526 L170.96826,11.7741252 C170.96826,9.81477243 170.422536,8.32604854 169.331086,7.30795349 C168.239636,6.28985844 166.679054,5.78081092 164.649341,5.78081092 C163.634484,5.78081092 162.705795,5.88646229 161.863272,6.09776504 C161.020749,6.30906778 160.149504,6.61641723 159.249537,7.01981338 L159.249537,7.01981338 L159.910151,8.83509607 C160.676081,8.48932794 161.413288,8.22039717 162.121773,8.02830376 C162.830258,7.83621036 163.596188,7.74016365 164.419562,7.74016365 C165.836532,7.74016365 166.927982,8.08593178 167.693911,8.77746804 C168.459841,9.4690043 168.842806,10.4774947 168.842806,11.8029392 L168.842806,11.8029392 L168.842806,12.3215914 C167.349243,11.8989859 165.826958,11.6876831 164.27595,11.6876831 C162.341978,11.6876831 160.800545,12.1054863 159.65165,12.9410926 C158.502756,13.7766989 157.928308,14.9724804 157.928308,16.528437 C157.928308,17.5273227 158.191597,18.377336 158.718173,19.0784769 C159.24475,19.7796178 159.9293,20.3078747 160.771822,20.6632475 C161.614345,21.0186203 162.514312,21.1963067 163.471724,21.1963067 Z M163.797163,19.751104 C162.686725,19.751104 161.752947,19.4753944 160.995829,18.9239754 C160.238712,18.3725563 159.860153,17.6242018 159.860153,16.678912 C159.860153,15.6942351 160.258902,14.9163403 161.056399,14.3452277 C161.853896,13.7741151 162.979477,13.4885588 164.433142,13.4885588 C165.967567,13.4885588 167.501991,13.7051877 169.036416,14.1384456 L169.036416,14.1384456 L169.036416,15.6154609 C169.036416,16.4032025 168.804233,17.1121698 168.339868,17.7423631 C167.875502,18.3725563 167.239524,18.8648948 166.431932,19.2193784 C165.62434,19.5738621 164.746084,19.751104 163.797163,19.751104 Z M177.992998,21.1963067 L177.992998,15.1614607 C177.992998,13.6771619 178.249571,12.4125785 178.762717,11.3677103 C179.275864,10.3228422 179.974313,9.53674977 180.858065,9.00943312 C181.741817,8.48211647 182.73485,8.21845815 183.837164,8.21845815 L183.837164,8.21845815 L184.008213,8.21845815 L184.008213,5.78694251 C182.658828,5.72835177 181.461487,6.08966132 180.416189,6.87087117 C179.370891,7.65208101 178.563161,8.69694918 177.992998,10.0054757 L177.992998,10.0054757 L177.992998,6.05060083 L175.797872,6.05060083 L175.797872,21.1963067 L177.992998,21.1963067 Z M189.657491,21.1963067 L189.657491,17.2764418 L192.750967,14.1986219 L198.201379,21.1963067 L200.911854,21.1963067 L194.312437,12.6306759 L200.705622,6.18467579 L197.877301,6.18467579 L189.657491,14.6341624 L189.657491,0 L187.388941,0 L187.388941,21.1963067 L189.657491,21.1963067 Z" id="park" fill="#948766"></path>
            </g>
            <g id="Group-11">
                <g id="layer101" transform="translate(0.000000, 5.335550)" fill="#FFFFFF">
                    <path d="M4.81200126,52.5843274 C4.0830237,52.0720978 2.6706297,50.814807 1.75940776,49.7903478 C-0.700891477,46.9963682 -0.609769283,45.5062458 2.21501873,42.7588325 C4.1285848,40.8961795 17.7057917,30.837853 31.3285597,21.1520571 C45.7258663,11.0005979 47.2293825,9.7433071 50.3730982,5.27293977 C51.4665646,3.68968467 52.5144698,1.82703162 52.6511531,1.12853672 C52.8333975,0.430041824 53.1978862,-0.0821877669 53.5168139,0.0109448859 C54.3369137,0.290342844 54.3824748,4.94697548 53.562375,7.46155711 C53.1523251,8.71884792 52.9245197,9.88300608 53.1067641,10.0227051 C53.2434473,10.162404 56.1593575,10.4883683 59.6220009,10.6746336 C63.0390832,10.9074653 66.0461156,11.2799959 66.22836,11.4662612 C66.7750931,12.0250571 64.0414273,14.1671081 49.4163152,24.8307969 C42.6277117,29.7668275 36.4314026,34.5631591 35.6568639,35.4944856 C34.1077866,37.264006 33.83442,38.1021999 33.6521756,41.2687101 C33.5154924,43.2244958 33.4243702,43.3641948 31.6930485,43.969557 C26.8180111,45.7390774 15.2454925,49.2315519 14.3342705,49.2315519 C13.7875374,49.2315519 12.1473379,50.1628784 10.6893828,51.3270366 C7.81903366,53.6553529 6.86225062,53.8416182 4.81200126,52.5843274 Z" id="Path"></path>
                </g>
                <g id="layer102" transform="translate(37.259228, 0.000000)" fill="#948766">
                    <path d="M126.302721,51.2834936 C113.35442,49.1998535 108.402263,48.2274881 89.9566141,44.3380266 C81.0972506,42.485902 71.2838018,40.4948682 68.1489501,39.9392308 L62.4244383,38.8742592 L58.9715581,40.1244433 C55.6549759,41.2820211 55.1097843,41.3283242 45.6597966,41.3283242 L35.7554825,41.3283242 L25.9420337,44.5695421 C20.5355503,46.3290604 15.2653648,47.9959725 14.2204143,48.2737912 C13.1754637,48.5516099 11.3581583,49.4776722 10.2223425,50.3574313 C7.81441294,52.255859 6.04254024,52.4410714 3.77090857,51.0056749 C1.81730534,49.7554908 0,47.0699103 0,45.4029982 C0,44.4769359 0.590624234,43.5508736 1.95360324,42.2080834 C4.04350437,40.2170495 22.2165577,26.928056 34.9831277,18.0841613 C43.7970586,11.9721504 50.066762,5.99904874 51.8840673,2.01698099 C52.5655568,0.535281363 53.1561811,-0.251871563 53.3379116,0.07225023 C53.8831032,0.952009383 53.7013727,4.37843977 52.9744505,6.78620166 C52.6109895,8.03638572 52.3838263,9.19396356 52.4746916,9.37917601 C52.5655568,9.56438846 55.0643517,9.84220714 58.0174728,9.98111648 C68.9667375,10.5367538 81.6424422,13.2686375 89.2751246,16.6950679 C91.5467563,17.7137364 99.7246303,21.649501 107.448178,25.4926594 C128.165459,35.7256475 135.298382,38.6890467 147.883222,42.2543865 C154.698117,44.1528141 157.469507,45.4956044 154.698117,45.4956044 C152.971677,45.4956044 138.569532,42.5322052 134.026269,41.2820211 C132.163531,40.7263837 123.395032,38.2260156 114.581101,35.7256475 C88.1393088,28.1319369 77.1446115,25.6315688 73.4191356,26.5113279 C70.3751491,27.2058746 69.9662554,28.17824 72.6013482,28.594968 C84.7318613,30.5860019 91.3650258,32.252914 112.990959,38.5038343 C135.661843,45.0788764 142.749334,46.7920916 154.698117,48.5053068 C165.329353,50.0796126 166.056275,51.885434 155.606769,50.7741593 C144.06688,49.5702784 136.479631,47.9959725 116.534705,42.7174176 C90.5472384,35.8182537 76.1905262,32.5307327 72.1470218,32.5307327 C70.7840428,32.5307327 68.1489501,33.7809167 68.1489501,34.4754634 C68.1489501,34.6606759 69.1030354,34.9384946 70.3297165,35.0774039 C76.5994199,36.0034662 85.5496487,37.9018938 96.0900196,40.6337775 C131.209445,49.6165815 137.751744,51.4224029 138.478667,52.1169496 C139.160156,52.8577994 139.114723,52.9041025 137.433716,52.8577994 C136.434198,52.8114963 131.436608,52.1169496 126.302721,51.2834936 Z" id="Path"></path>
                </g>
            </g>
        </g>
    </g>
</svg>